STARTFONT 2.3
FONT -FontForge-Tangerine-Book-R-Normal--14-140-72-72-P-52-ISO10646-1
SIZE 14 72 72  2
FONTBOUNDINGBOX 24 15 -5 -4
COMMENT "Generated by fontforge, http://fontforge.sourceforge.net"
COMMENT "Copyright (c) 2010 by Toshi Omagari. All rights reserved."
STARTPROPERTIES 40
FOUNDRY "FontForge"
FAMILY_NAME "Tangerine"
WEIGHT_NAME "Book"
SLANT "R"
SETWIDTH_NAME "Normal"
ADD_STYLE_NAME ""
PIXEL_SIZE 14
POINT_SIZE 140
RESOLUTION_X 72
RESOLUTION_Y 72
SPACING "P"
AVERAGE_WIDTH 52
CHARSET_REGISTRY "ISO10646"
CHARSET_ENCODING "1"
FONTNAME_REGISTRY ""
CHARSET_COLLECTIONS "ISO10646-1"
BITS_PER_PIXEL 2
FONT_NAME "Tangerine-Regular"
FACE_NAME "Tangerine Regular"
COPYRIGHT "Copyright (c) 2010 by Toshi Omagari. All rights reserved."
FONT_VERSION "1.3"
FONT_ASCENT 11
FONT_DESCENT 3
UNDERLINE_POSITION -1
UNDERLINE_THICKNESS 1
X_HEIGHT 3
CAP_HEIGHT 8
RAW_ASCENT 750
RAW_DESCENT 250
NORM_SPACE 2
RELATIVE_WEIGHT 40
RELATIVE_SETWIDTH 50
SUPERSCRIPT_X 0
SUPERSCRIPT_Y 6
SUPERSCRIPT_SIZE 9
SUBSCRIPT_X 0
SUBSCRIPT_Y 1
SUBSCRIPT_SIZE 9
AVG_LOWERCASE_WIDTH 34
AVG_UPPERCASE_WIDTH 99
ENDPROPERTIES
CHARS 233
STARTCHAR space
ENCODING 32
SWIDTH 150 0
DWIDTH 2 0
BBX 1 1 0 0
BITMAP
00
ENDCHAR
STARTCHAR exclam
ENCODING 33
SWIDTH 189 0
DWIDTH 3 0
BBX 4 8 1 0
BITMAP
05
08
04
10
10
40
00
40
ENDCHAR
STARTCHAR quotedbl
ENCODING 34
SWIDTH 214 0
DWIDTH 3 0
BBX 3 2 1 4
BITMAP
54
50
ENDCHAR
STARTCHAR numbersign
ENCODING 35
SWIDTH 289 0
DWIDTH 4 0
BBX 5 4 0 0
BITMAP
0500
2F40
7800
4000
ENDCHAR
STARTCHAR dollar
ENCODING 36
SWIDTH 269 0
DWIDTH 4 0
BBX 4 5 0 0
BITMAP
05
15
14
04
54
ENDCHAR
STARTCHAR percent
ENCODING 37
SWIDTH 388 0
DWIDTH 5 0
BBX 5 6 0 -1
BITMAP
0040
0500
5540
5540
1240
4000
ENDCHAR
STARTCHAR ampersand
ENCODING 38
SWIDTH 507 0
DWIDTH 7 0
BBX 7 7 0 0
BITMAP
0700
0500
0500
1814
4540
8240
6594
ENDCHAR
STARTCHAR quotesingle
ENCODING 39
SWIDTH 120 0
DWIDTH 2 0
BBX 1 2 1 4
BITMAP
40
40
ENDCHAR
STARTCHAR parenleft
ENCODING 40
SWIDTH 250 0
DWIDTH 4 0
BBX 4 10 1 -1
BITMAP
01
04
10
20
50
40
80
40
40
40
ENDCHAR
STARTCHAR parenright
ENCODING 41
SWIDTH 276 0
DWIDTH 4 0
BBX 3 10 1 -1
BITMAP
04
04
04
04
08
04
10
20
50
40
ENDCHAR
STARTCHAR asterisk
ENCODING 42
SWIDTH 188 0
DWIDTH 3 0
BBX 1 2 1 4
BITMAP
40
40
ENDCHAR
STARTCHAR plus
ENCODING 43
SWIDTH 301 0
DWIDTH 4 0
BBX 4 3 0 1
BITMAP
04
7E
14
ENDCHAR
STARTCHAR comma
ENCODING 44
SWIDTH 112 0
DWIDTH 2 0
BBX 1 2 0 -1
BITMAP
40
40
ENDCHAR
STARTCHAR hyphen
ENCODING 45
SWIDTH 245 0
DWIDTH 3 0
BBX 1 1 3 2
BITMAP
00
ENDCHAR
STARTCHAR period
ENCODING 46
SWIDTH 112 0
DWIDTH 2 0
BBX 1 1 0 0
BITMAP
40
ENDCHAR
STARTCHAR slash
ENCODING 47
SWIDTH 210 0
DWIDTH 3 0
BBX 5 8 0 0
BITMAP
0040
0100
0100
0400
0400
1000
4000
4000
ENDCHAR
STARTCHAR zero
ENCODING 48
SWIDTH 349 0
DWIDTH 5 0
BBX 5 4 0 0
BITMAP
0040
1040
5040
2500
ENDCHAR
STARTCHAR one
ENCODING 49
SWIDTH 189 0
DWIDTH 3 0
BBX 3 5 0 0
BITMAP
24
0C
24
20
50
ENDCHAR
STARTCHAR two
ENCODING 50
SWIDTH 277 0
DWIDTH 4 0
BBX 4 4 0 0
BITMAP
16
01
04
64
ENDCHAR
STARTCHAR three
ENCODING 51
SWIDTH 253 0
DWIDTH 4 0
BBX 5 6 -1 -2
BITMAP
0140
0640
0100
0100
4600
7800
ENDCHAR
STARTCHAR four
ENCODING 52
SWIDTH 363 0
DWIDTH 5 0
BBX 5 8 1 0
BITMAP
0040
0140
0500
1100
4400
6E00
0400
1400
ENDCHAR
STARTCHAR five
ENCODING 53
SWIDTH 250 0
DWIDTH 4 0
BBX 5 6 -1 -2
BITMAP
0640
0400
0D00
0200
4500
B800
ENDCHAR
STARTCHAR six
ENCODING 54
SWIDTH 296 0
DWIDTH 4 0
BBX 6 7 0 0
BITMAP
01E0
0510
1400
2100
1200
5100
2400
ENDCHAR
STARTCHAR seven
ENCODING 55
SWIDTH 326 0
DWIDTH 5 0
BBX 5 6 0 -2
BITMAP
1F80
1000
0000
0400
1000
8000
ENDCHAR
STARTCHAR eight
ENCODING 56
SWIDTH 305 0
DWIDTH 4 0
BBX 5 7 0 0
BITMAP
0140
0480
0840
0600
1140
5100
2500
ENDCHAR
STARTCHAR nine
ENCODING 57
SWIDTH 304 0
DWIDTH 4 0
BBX 5 7 -1 -2
BITMAP
0100
0440
0480
14C0
1E40
0200
7800
ENDCHAR
STARTCHAR colon
ENCODING 58
SWIDTH 156 0
DWIDTH 2 0
BBX 2 4 0 0
BITMAP
10
00
00
40
ENDCHAR
STARTCHAR semicolon
ENCODING 59
SWIDTH 156 0
DWIDTH 2 0
BBX 2 5 0 -1
BITMAP
10
00
00
40
40
ENDCHAR
STARTCHAR less
ENCODING 60
SWIDTH 301 0
DWIDTH 4 0
BBX 3 3 1 0
BITMAP
10
90
24
ENDCHAR
STARTCHAR equal
ENCODING 61
SWIDTH 301 0
DWIDTH 4 0
BBX 4 3 0 0
BITMAP
3F
00
7E
ENDCHAR
STARTCHAR greater
ENCODING 62
SWIDTH 301 0
DWIDTH 4 0
BBX 4 3 0 0
BITMAP
14
19
60
ENDCHAR
STARTCHAR question
ENCODING 63
SWIDTH 285 0
DWIDTH 4 0
BBX 5 8 1 0
BITMAP
0500
1140
0140
0100
1000
5000
0000
4000
ENDCHAR
STARTCHAR at
ENCODING 64
SWIDTH 492 0
DWIDTH 7 0
BBX 7 7 0 -2
BITMAP
07D0
2680
1444
45A0
59D0
2010
0540
ENDCHAR
STARTCHAR A
ENCODING 65
SWIDTH 996 0
DWIDTH 14 0
BBX 14 9 0 0
BITMAP
00005690
00000060
00000140
00000440
00025040
0001BF00
00004100
50050100
29500190
ENDCHAR
STARTCHAR B
ENCODING 66
SWIDTH 638 0
DWIDTH 9 0
BBX 9 9 0 0
BITMAP
005A40
001080
001080
004540
004200
004080
010080
640040
055500
ENDCHAR
STARTCHAR C
ENCODING 67
SWIDTH 557 0
DWIDTH 8 0
BBX 8 9 1 0
BITMAP
0155
1001
1000
8000
8000
8000
8000
5004
1560
ENDCHAR
STARTCHAR D
ENCODING 68
SWIDTH 799 0
DWIDTH 11 0
BBX 11 9 0 0
BITMAP
015A40
040190
000420
000808
001408
001004
001004
154004
555550
ENDCHAR
STARTCHAR E
ENCODING 69
SWIDTH 494 0
DWIDTH 7 0
BBX 7 9 1 0
BITMAP
0154
0404
0900
0B00
6000
8000
8000
8010
5540
ENDCHAR
STARTCHAR F
ENCODING 70
SWIDTH 626 0
DWIDTH 9 0
BBX 12 9 0 0
BITMAP
0015BE
000080
000140
000100
007FD0
000100
100400
500400
254000
ENDCHAR
STARTCHAR G
ENCODING 71
SWIDTH 571 0
DWIDTH 8 0
BBX 11 12 -1 -3
BITMAP
0002F4
000908
002004
004000
008000
008000
008080
008140
100200
400100
500400
155000
ENDCHAR
STARTCHAR H
ENCODING 72
SWIDTH 865 0
DWIDTH 12 0
BBX 16 10 0 0
BITMAP
00000005
00154011
00010040
00050100
00080100
06FE5400
19096D00
10100800
50500400
25400900
ENDCHAR
STARTCHAR I
ENCODING 73
SWIDTH 554 0
DWIDTH 8 0
BBX 10 9 0 0
BITMAP
000060
000540
001040
001140
001100
000100
100400
606000
2F8000
ENDCHAR
STARTCHAR J
ENCODING 74
SWIDTH 634 0
DWIDTH 9 0
BBX 12 12 0 -3
BITMAP
000019
000150
000110
000410
000440
000480
000140
100200
400500
401800
816000
7E4000
ENDCHAR
STARTCHAR K
ENCODING 75
SWIDTH 936 0
DWIDTH 13 0
BBX 14 9 0 0
BITMAP
00159160
00404400
01011000
00024000
00028000
00014000
10042000
50002000
25400940
ENDCHAR
STARTCHAR L
ENCODING 76
SWIDTH 657 0
DWIDTH 9 0
BBX 10 9 0 0
BITMAP
0001E0
000510
000400
001000
002000
001000
158000
6B9040
546E00
ENDCHAR
STARTCHAR M
ENCODING 77
SWIDTH 1219 0
DWIDTH 17 0
BBX 18 9 0 0
BITMAP
00015A4010
0000008080
0000014140
0000060200
0000051200
1000154500
5000450500
2005090500
1A50040640
ENDCHAR
STARTCHAR N
ENCODING 78
SWIDTH 990 0
DWIDTH 14 0
BBX 18 9 0 0
BITMAP
00164000A0
0000500100
0000540400
0000440400
0000421000
1001021000
4000004000
2004008000
1A50004000
ENDCHAR
STARTCHAR O
ENCODING 79
SWIDTH 606 0
DWIDTH 8 0
BBX 8 9 1 0
BITMAP
02F8
190A
1002
4002
4001
8001
8004
A424
2F90
ENDCHAR
STARTCHAR P
ENCODING 80
SWIDTH 783 0
DWIDTH 11 0
BBX 12 9 0 0
BITMAP
000568
001042
000141
000101
000201
100554
400400
501000
154000
ENDCHAR
STARTCHAR Q
ENCODING 81
SWIDTH 563 0
DWIDTH 8 0
BBX 9 11 1 -2
BITMAP
005400
000900
100500
400100
400400
400400
240000
000000
690000
029000
002F80
ENDCHAR
STARTCHAR R
ENCODING 82
SWIDTH 854 0
DWIDTH 12 0
BBX 12 10 0 0
BITMAP
000010
000594
000145
000205
000104
000550
000880
001480
401050
254029
ENDCHAR
STARTCHAR S
ENCODING 83
SWIDTH 480 0
DWIDTH 7 0
BBX 8 9 0 0
BITMAP
0058
0041
0080
0080
0020
0014
1004
5010
2540
ENDCHAR
STARTCHAR T
ENCODING 84
SWIDTH 577 0
DWIDTH 8 0
BBX 11 9 0 0
BITMAP
006FE4
014054
000000
040100
000100
000100
100400
501000
254000
ENDCHAR
STARTCHAR U
ENCODING 85
SWIDTH 752 0
DWIDTH 11 0
BBX 11 9 1 0
BITMAP
159004
404020
410020
010080
040180
040240
080940
082500
0B8180
ENDCHAR
STARTCHAR V
ENCODING 86
SWIDTH 661 0
DWIDTH 9 0
BBX 10 9 1 0
BITMAP
1601C0
004050
404010
001000
001000
001000
005000
008000
004000
ENDCHAR
STARTCHAR W
ENCODING 87
SWIDTH 822 0
DWIDTH 12 0
BBX 12 9 1 0
BITMAP
1A0006
404101
004501
004501
005104
004100
004200
010240
010200
ENDCHAR
STARTCHAR X
ENCODING 88
SWIDTH 813 0
DWIDTH 11 0
BBX 11 9 1 0
BITMAP
009068
016104
002000
002000
002000
001400
004800
410610
A401E0
ENDCHAR
STARTCHAR Y
ENCODING 89
SWIDTH 662 0
DWIDTH 9 0
BBX 12 11 0 -2
BITMAP
001401
000402
001408
001008
001020
141050
405240
403900
800000
601400
2F8000
ENDCHAR
STARTCHAR Z
ENCODING 90
SWIDTH 625 0
DWIDTH 9 0
BBX 9 9 1 0
BITMAP
01FF40
010000
040000
000000
000000
010000
040100
100400
BFE000
ENDCHAR
STARTCHAR bracketleft
ENCODING 91
SWIDTH 318 0
DWIDTH 4 0
BBX 5 10 1 -1
BITMAP
0940
0800
0800
1400
2000
2000
2000
5000
8000
9000
ENDCHAR
STARTCHAR backslash
ENCODING 92
SWIDTH 212 0
DWIDTH 3 0
BBX 3 9 0 0
BITMAP
40
40
40
10
10
10
10
10
04
ENDCHAR
STARTCHAR bracketright
ENCODING 93
SWIDTH 339 0
DWIDTH 5 0
BBX 4 10 1 -1
BITMAP
06
02
01
05
08
08
04
14
20
60
ENDCHAR
STARTCHAR asciicircum
ENCODING 94
SWIDTH 272 0
DWIDTH 4 0
BBX 3 4 1 2
BITMAP
20
70
94
44
ENDCHAR
STARTCHAR underscore
ENCODING 95
SWIDTH 356 0
DWIDTH 5 0
BBX 4 1 0 -1
BITMAP
A9
ENDCHAR
STARTCHAR grave
ENCODING 96
SWIDTH 155 0
DWIDTH 2 0
BBX 2 2 0 4
BITMAP
50
10
ENDCHAR
STARTCHAR a
ENCODING 97
SWIDTH 294 0
DWIDTH 4 0
BBX 4 4 0 0
BITMAP
1E
61
40
45
ENDCHAR
STARTCHAR b
ENCODING 98
SWIDTH 247 0
DWIDTH 3 0
BBX 8 11 0 0
BITMAP
0019
0000
0000
0000
0400
0000
1000
2D00
6500
4400
5000
ENDCHAR
STARTCHAR c
ENCODING 99
SWIDTH 203 0
DWIDTH 3 0
BBX 3 4 0 0
BITMAP
04
40
40
60
ENDCHAR
STARTCHAR d
ENCODING 100
SWIDTH 285 0
DWIDTH 4 0
BBX 9 11 0 0
BITMAP
000180
000400
001000
000000
004000
004000
010000
1A0000
510000
480000
550000
ENDCHAR
STARTCHAR e
ENCODING 101
SWIDTH 206 0
DWIDTH 3 0
BBX 3 4 0 0
BITMAP
28
40
40
50
ENDCHAR
STARTCHAR f
ENCODING 102
SWIDTH 156 0
DWIDTH 2 0
BBX 12 14 -4 -3
BITMAP
000019
000040
000100
000100
000400
000400
001000
007D00
001000
001000
004000
004000
010000
540000
ENDCHAR
STARTCHAR g
ENCODING 103
SWIDTH 210 0
DWIDTH 3 0
BBX 5 7 -2 -3
BITMAP
0280
0440
0400
0600
0140
5040
7E00
ENDCHAR
STARTCHAR h
ENCODING 104
SWIDTH 292 0
DWIDTH 4 0
BBX 8 11 0 0
BITMAP
0015
0000
0000
0000
0400
0400
1000
1A00
2500
5500
4500
ENDCHAR
STARTCHAR i
ENCODING 105
SWIDTH 149 0
DWIDTH 2 0
BBX 3 6 0 0
BITMAP
04
00
10
10
40
50
ENDCHAR
STARTCHAR j
ENCODING 106
SWIDTH 136 0
DWIDTH 2 0
BBX 6 7 -4 -3
BITMAP
0010
0010
0040
0040
0000
0000
5000
ENDCHAR
STARTCHAR k
ENCODING 107
SWIDTH 259 0
DWIDTH 4 0
BBX 8 11 0 0
BITMAP
0015
0040
0000
0000
0400
0000
1000
1900
2000
6000
4800
ENDCHAR
STARTCHAR l
ENCODING 108
SWIDTH 134 0
DWIDTH 2 0
BBX 7 11 0 0
BITMAP
0024
0040
0100
0000
0400
0000
1000
1000
5000
4000
5000
ENDCHAR
STARTCHAR m
ENCODING 109
SWIDTH 413 0
DWIDTH 6 0
BBX 6 5 0 -1
BITMAP
2A90
2250
5540
4440
0010
ENDCHAR
STARTCHAR n
ENCODING 110
SWIDTH 291 0
DWIDTH 4 0
BBX 4 4 0 0
BITMAP
2A
25
55
45
ENDCHAR
STARTCHAR o
ENCODING 111
SWIDTH 225 0
DWIDTH 3 0
BBX 3 4 0 0
BITMAP
2C
58
40
40
ENDCHAR
STARTCHAR p
ENCODING 112
SWIDTH 261 0
DWIDTH 4 0
BBX 5 7 -1 -3
BITMAP
0440
0040
1200
2D00
1000
5000
5000
ENDCHAR
STARTCHAR q
ENCODING 113
SWIDTH 269 0
DWIDTH 4 0
BBX 4 7 0 -3
BITMAP
1A
51
84
94
10
10
20
ENDCHAR
STARTCHAR r
ENCODING 114
SWIDTH 195 0
DWIDTH 3 0
BBX 4 4 0 0
BITMAP
29
20
10
40
ENDCHAR
STARTCHAR s
ENCODING 115
SWIDTH 188 0
DWIDTH 3 0
BBX 3 4 0 0
BITMAP
14
20
10
50
ENDCHAR
STARTCHAR t
ENCODING 116
SWIDTH 171 0
DWIDTH 2 0
BBX 3 6 0 0
BITMAP
04
10
38
20
50
50
ENDCHAR
STARTCHAR u
ENCODING 117
SWIDTH 299 0
DWIDTH 4 0
BBX 4 4 0 0
BITMAP
11
15
59
65
ENDCHAR
STARTCHAR v
ENCODING 118
SWIDTH 271 0
DWIDTH 4 0
BBX 4 4 0 0
BITMAP
22
21
10
50
ENDCHAR
STARTCHAR w
ENCODING 119
SWIDTH 369 0
DWIDTH 5 0
BBX 5 4 0 0
BITMAP
5480
1840
2840
1A00
ENDCHAR
STARTCHAR x
ENCODING 120
SWIDTH 263 0
DWIDTH 4 0
BBX 4 4 0 0
BITMAP
16
24
20
98
ENDCHAR
STARTCHAR y
ENCODING 121
SWIDTH 280 0
DWIDTH 4 0
BBX 7 7 -3 -3
BITMAP
0044
0054
0120
0190
0010
4000
5400
ENDCHAR
STARTCHAR z
ENCODING 122
SWIDTH 238 0
DWIDTH 3 0
BBX 3 4 0 0
BITMAP
18
00
10
A4
ENDCHAR
STARTCHAR braceleft
ENCODING 123
SWIDTH 291 0
DWIDTH 4 0
BBX 4 11 1 -2
BITMAP
01
04
04
14
10
50
10
50
80
80
10
ENDCHAR
STARTCHAR bar
ENCODING 124
SWIDTH 162 0
DWIDTH 2 0
BBX 1 12 1 -3
BITMAP
40
40
40
40
40
40
40
40
40
40
40
40
ENDCHAR
STARTCHAR braceright
ENCODING 125
SWIDTH 285 0
DWIDTH 4 0
BBX 5 11 0 -2
BITMAP
0100
0140
0200
0200
0500
0200
0400
0800
0400
1000
4000
ENDCHAR
STARTCHAR asciitilde
ENCODING 126
SWIDTH 383 0
DWIDTH 5 0
BBX 4 2 1 2
BITMAP
A1
1D
ENDCHAR
STARTCHAR space.dup1
ENCODING 160
SWIDTH 150 0
DWIDTH 2 0
BBX 1 1 0 0
BITMAP
00
ENDCHAR
STARTCHAR exclamdown
ENCODING 161
SWIDTH 189 0
DWIDTH 3 0
BBX 4 8 -1 -4
BITMAP
01
00
04
10
10
10
80
40
ENDCHAR
STARTCHAR cent
ENCODING 162
SWIDTH 194 0
DWIDTH 3 0
BBX 3 5 0 0
BITMAP
04
04
60
A0
50
ENDCHAR
STARTCHAR sterling
ENCODING 163
SWIDTH 344 0
DWIDTH 5 0
BBX 5 4 0 0
BITMAP
0140
0400
1400
6500
ENDCHAR
STARTCHAR currency
ENCODING 164
SWIDTH 344 0
DWIDTH 5 0
BBX 4 4 1 0
BITMAP
59
04
44
04
ENDCHAR
STARTCHAR yen
ENCODING 165
SWIDTH 309 0
DWIDTH 4 0
BBX 3 4 0 0
BITMAP
14
78
10
7C
ENDCHAR
STARTCHAR brokenbar
ENCODING 166
SWIDTH 162 0
DWIDTH 2 0
BBX 1 12 1 -3
BITMAP
40
40
40
40
40
00
00
40
40
40
40
40
ENDCHAR
STARTCHAR section
ENCODING 167
SWIDTH 395 0
DWIDTH 6 0
BBX 8 12 -1 -4
BITMAP
0004
0055
0141
0140
0280
0280
0250
0150
0150
4040
9140
1400
ENDCHAR
STARTCHAR dieresis
ENCODING 168
SWIDTH 174 0
DWIDTH 2 0
BBX 2 1 0 4
BITMAP
50
ENDCHAR
STARTCHAR copyright
ENCODING 169
SWIDTH 331 0
DWIDTH 5 0
BBX 4 4 1 1
BITMAP
04
51
44
10
ENDCHAR
STARTCHAR ordfeminine
ENCODING 170
SWIDTH 226 0
DWIDTH 3 0
BBX 1 1 2 3
BITMAP
40
ENDCHAR
STARTCHAR guillemotleft
ENCODING 171
SWIDTH 289 0
DWIDTH 4 0
BBX 4 4 0 0
BITMAP
05
19
5C
29
ENDCHAR
STARTCHAR logicalnot
ENCODING 172
SWIDTH 265 0
DWIDTH 4 0
BBX 4 3 0 1
BITMAP
BD
04
04
ENDCHAR
STARTCHAR registered
ENCODING 174
SWIDTH 331 0
DWIDTH 5 0
BBX 4 3 1 2
BITMAP
54
51
40
ENDCHAR
STARTCHAR degree
ENCODING 176
SWIDTH 104 0
DWIDTH 1 0
BBX 2 2 1 4
BITMAP
90
40
ENDCHAR
STARTCHAR plusminus
ENCODING 177
SWIDTH 301 0
DWIDTH 4 0
BBX 4 4 0 0
BITMAP
04
7E
00
54
ENDCHAR
STARTCHAR twosuperior
ENCODING 178
SWIDTH 215 0
DWIDTH 3 0
BBX 2 2 1 2
BITMAP
10
40
ENDCHAR
STARTCHAR threesuperior
ENCODING 179
SWIDTH 190 0
DWIDTH 3 0
BBX 1 2 1 2
BITMAP
40
40
ENDCHAR
STARTCHAR acute
ENCODING 180
SWIDTH 157 0
DWIDTH 2 0
BBX 2 2 0 4
BITMAP
20
40
ENDCHAR
STARTCHAR mu
ENCODING 181
SWIDTH 324 0
DWIDTH 5 0
BBX 4 6 0 -2
BITMAP
11
12
59
62
40
40
ENDCHAR
STARTCHAR paragraph
ENCODING 182
SWIDTH 392 0
DWIDTH 5 0
BBX 7 7 -1 -3
BITMAP
0154
07A0
0B60
0750
0140
4540
9400
ENDCHAR
STARTCHAR periodcentered
ENCODING 183
SWIDTH 112 0
DWIDTH 2 0
BBX 1 1 0 2
BITMAP
40
ENDCHAR
STARTCHAR cedilla
ENCODING 184
SWIDTH 115 0
DWIDTH 2 0
BBX 1 1 0 -2
BITMAP
40
ENDCHAR
STARTCHAR onesuperior
ENCODING 185
SWIDTH 174 0
DWIDTH 2 0
BBX 1 3 1 2
BITMAP
40
80
40
ENDCHAR
STARTCHAR ordmasculine
ENCODING 186
SWIDTH 178 0
DWIDTH 2 0
BBX 1 1 2 2
BITMAP
00
ENDCHAR
STARTCHAR guillemotright
ENCODING 187
SWIDTH 276 0
DWIDTH 4 0
BBX 4 4 0 0
BITMAP
58
25
14
50
ENDCHAR
STARTCHAR onequarter
ENCODING 188
SWIDTH 435 0
DWIDTH 6 0
BBX 5 4 1 0
BITMAP
1100
4400
5140
4700
ENDCHAR
STARTCHAR onehalf
ENCODING 189
SWIDTH 434 0
DWIDTH 6 0
BBX 5 4 1 0
BITMAP
1100
4540
5040
4500
ENDCHAR
STARTCHAR threequarters
ENCODING 190
SWIDTH 476 0
DWIDTH 7 0
BBX 5 6 1 -1
BITMAP
0040
1100
1440
5540
1140
4000
ENDCHAR
STARTCHAR questiondown
ENCODING 191
SWIDTH 285 0
DWIDTH 4 0
BBX 5 8 -1 -4
BITMAP
0080
0000
0200
0500
1000
4000
8500
1400
ENDCHAR
STARTCHAR Agrave
ENCODING 192
SWIDTH 996 0
DWIDTH 14 0
BBX 14 11 0 0
BITMAP
00000050
00000000
00005690
00000060
00000140
00000440
00025040
0001BF00
00004100
50050100
29500190
ENDCHAR
STARTCHAR Aacute
ENCODING 193
SWIDTH 996 0
DWIDTH 14 0
BBX 14 11 0 0
BITMAP
00000010
00000000
00005690
00000060
00000140
00000440
00025040
0001BF00
00004100
50050100
29500190
ENDCHAR
STARTCHAR Acircumflex
ENCODING 194
SWIDTH 996 0
DWIDTH 14 0
BBX 15 11 0 0
BITMAP
00000004
00000000
00005690
00000060
00000140
00000440
00025040
0001BF00
00004100
50050100
29500190
ENDCHAR
STARTCHAR Atilde
ENCODING 195
SWIDTH 996 0
DWIDTH 14 0
BBX 15 11 0 0
BITMAP
00000064
000000A4
00005690
00000060
00000140
00000440
00025040
0001BF00
00004100
50050100
29500190
ENDCHAR
STARTCHAR Adieresis
ENCODING 196
SWIDTH 996 0
DWIDTH 14 0
BBX 15 11 0 0
BITMAP
00000014
00000000
00005690
00000060
00000140
00000440
00025040
0001BF00
00004100
50050100
29500190
ENDCHAR
STARTCHAR Aring
ENCODING 197
SWIDTH 996 0
DWIDTH 14 0
BBX 14 10 0 0
BITMAP
00000010
00005690
00000060
00000140
00000440
00025040
0001BF00
00004100
50050100
29500190
ENDCHAR
STARTCHAR AE
ENCODING 198
SWIDTH 1271 0
DWIDTH 18 0
BBX 19 9 0 0
BITMAP
0000569154
0000006404
0000015900
0000044600
0002508000
0001FF8000
0000404000
5005008010
2950005540
ENDCHAR
STARTCHAR Ccedilla
ENCODING 199
SWIDTH 557 0
DWIDTH 8 0
BBX 8 10 1 -1
BITMAP
0155
1001
5000
8000
8000
8000
9004
2420
0540
0100
ENDCHAR
STARTCHAR Egrave
ENCODING 200
SWIDTH 463 0
DWIDTH 6 0
BBX 7 11 0 0
BITMAP
0010
0000
0158
0100
0200
0680
2400
5000
8000
5010
2550
ENDCHAR
STARTCHAR Eacute
ENCODING 201
SWIDTH 463 0
DWIDTH 6 0
BBX 7 11 0 0
BITMAP
0014
0000
0158
0100
0200
0680
2400
5000
8000
5010
2550
ENDCHAR
STARTCHAR Ecircumflex
ENCODING 202
SWIDTH 463 0
DWIDTH 6 0
BBX 7 11 0 0
BITMAP
0014
0000
0158
0100
0200
0680
2400
5000
8000
5010
2550
ENDCHAR
STARTCHAR Edieresis
ENCODING 203
SWIDTH 463 0
DWIDTH 6 0
BBX 7 11 0 0
BITMAP
0014
0000
0158
0100
0200
0680
2400
5000
8000
5010
2550
ENDCHAR
STARTCHAR Igrave
ENCODING 204
SWIDTH 514 0
DWIDTH 7 0
BBX 10 11 0 0
BITMAP
000240
000000
000190
000440
001100
004200
004500
000400
400400
909000
7E4000
ENDCHAR
STARTCHAR Iacute
ENCODING 205
SWIDTH 514 0
DWIDTH 7 0
BBX 10 11 0 0
BITMAP
000140
000000
000190
000440
001100
004200
004500
000400
400400
909000
7E4000
ENDCHAR
STARTCHAR Icircumflex
ENCODING 206
SWIDTH 514 0
DWIDTH 7 0
BBX 10 11 0 0
BITMAP
000040
000000
000190
000440
001100
004200
004500
000400
400400
909000
7E4000
ENDCHAR
STARTCHAR Idieresis
ENCODING 207
SWIDTH 514 0
DWIDTH 7 0
BBX 10 11 0 0
BITMAP
000140
000000
000190
000440
001100
004200
004500
000400
400400
909000
7E4000
ENDCHAR
STARTCHAR Eth
ENCODING 208
SWIDTH 800 0
DWIDTH 11 0
BBX 11 9 0 0
BITMAP
015540
040000
000400
001404
007F08
00A004
001004
154004
555540
ENDCHAR
STARTCHAR Ntilde
ENCODING 209
SWIDTH 796 0
DWIDTH 11 0
BBX 17 11 -2 0
BITMAP
0000024000
0000068000
0059400280
0000800400
0000601000
0001141000
0001084000
4000054000
4004024000
8010024000
6A40014000
ENDCHAR
STARTCHAR Ograve
ENCODING 210
SWIDTH 608 0
DWIDTH 9 0
BBX 8 11 1 0
BITMAP
0050
0000
02F8
190A
1002
4001
4001
8001
8005
A424
2F90
ENDCHAR
STARTCHAR Oacute
ENCODING 211
SWIDTH 608 0
DWIDTH 9 0
BBX 8 11 1 0
BITMAP
0050
0000
02F8
190A
1002
4001
4001
8001
8005
A424
2F90
ENDCHAR
STARTCHAR Ocircumflex
ENCODING 212
SWIDTH 608 0
DWIDTH 9 0
BBX 8 11 1 0
BITMAP
0050
0000
02F8
190A
1002
4001
4001
8001
8005
A424
2F90
ENDCHAR
STARTCHAR Otilde
ENCODING 213
SWIDTH 608 0
DWIDTH 9 0
BBX 8 11 1 0
BITMAP
00A4
0040
02F8
190A
1002
4001
4001
8001
8005
A424
2F90
ENDCHAR
STARTCHAR Odieresis
ENCODING 214
SWIDTH 608 0
DWIDTH 9 0
BBX 8 11 1 0
BITMAP
0050
0000
02F8
190A
1002
4001
4001
8001
8005
A424
2F90
ENDCHAR
STARTCHAR multiply
ENCODING 215
SWIDTH 301 0
DWIDTH 4 0
BBX 3 4 1 0
BITMAP
44
10
50
50
ENDCHAR
STARTCHAR Oslash
ENCODING 216
SWIDTH 605 0
DWIDTH 8 0
BBX 8 9 1 0
BITMAP
02F9
1912
2052
4081
8102
8502
8408
4424
6F80
ENDCHAR
STARTCHAR Ugrave
ENCODING 217
SWIDTH 717 0
DWIDTH 10 0
BBX 11 10 0 0
BITMAP
000140
056004
100008
404020
410020
010090
050180
050580
051880
03D090
ENDCHAR
STARTCHAR Uacute
ENCODING 218
SWIDTH 717 0
DWIDTH 10 0
BBX 11 10 0 0
BITMAP
000040
056004
100008
404020
410020
010090
050180
050580
051880
03D090
ENDCHAR
STARTCHAR Ucircumflex
ENCODING 219
SWIDTH 718 0
DWIDTH 10 0
BBX 11 11 0 0
BITMAP
000080
000150
056004
100008
404020
410020
010090
050180
050580
051880
03D090
ENDCHAR
STARTCHAR Udieresis
ENCODING 220
SWIDTH 718 0
DWIDTH 10 0
BBX 11 11 0 0
BITMAP
000140
000000
056004
100008
404020
410020
010090
050180
050580
051880
03D090
ENDCHAR
STARTCHAR Yacute
ENCODING 221
SWIDTH 662 0
DWIDTH 9 0
BBX 12 13 0 -2
BITMAP
000010
000050
001401
000402
001408
001008
001020
141050
405240
403900
800000
601400
2F8000
ENDCHAR
STARTCHAR Thorn
ENCODING 222
SWIDTH 745 0
DWIDTH 10 0
BBX 11 9 0 0
BITMAP
000010
000040
0005E4
001158
000208
000204
400850
501140
154000
ENDCHAR
STARTCHAR germandbls
ENCODING 223
SWIDTH 304 0
DWIDTH 4 0
BBX 13 14 -5 -3
BITMAP
00000500
00001040
00004140
00000600
00001800
0000A000
00058000
00050000
00040000
00104000
00178000
00000000
00000000
54000000
ENDCHAR
STARTCHAR agrave
ENCODING 224
SWIDTH 294 0
DWIDTH 4 0
BBX 4 6 0 0
BITMAP
09
01
1E
61
40
45
ENDCHAR
STARTCHAR aacute
ENCODING 225
SWIDTH 294 0
DWIDTH 4 0
BBX 4 6 0 0
BITMAP
02
01
1E
61
40
45
ENDCHAR
STARTCHAR acircumflex
ENCODING 226
SWIDTH 294 0
DWIDTH 4 0
BBX 4 6 0 0
BITMAP
01
00
1E
61
40
45
ENDCHAR
STARTCHAR atilde
ENCODING 227
SWIDTH 294 0
DWIDTH 4 0
BBX 4 6 0 0
BITMAP
09
16
1E
61
40
45
ENDCHAR
STARTCHAR adieresis
ENCODING 228
SWIDTH 284 0
DWIDTH 4 0
BBX 4 5 0 0
BITMAP
05
1E
61
40
45
ENDCHAR
STARTCHAR aring
ENCODING 229
SWIDTH 294 0
DWIDTH 4 0
BBX 4 6 0 0
BITMAP
05
05
1E
61
40
45
ENDCHAR
STARTCHAR ae
ENCODING 230
SWIDTH 363 0
DWIDTH 5 0
BBX 5 4 0 0
BITMAP
1A80
5100
4400
5640
ENDCHAR
STARTCHAR ccedilla
ENCODING 231
SWIDTH 203 0
DWIDTH 3 0
BBX 3 5 0 -1
BITMAP
04
40
40
50
10
ENDCHAR
STARTCHAR egrave
ENCODING 232
SWIDTH 206 0
DWIDTH 3 0
BBX 3 6 0 0
BITMAP
18
04
28
40
40
50
ENDCHAR
STARTCHAR eacute
ENCODING 233
SWIDTH 206 0
DWIDTH 3 0
BBX 4 6 0 0
BITMAP
05
04
28
40
40
50
ENDCHAR
STARTCHAR ecircumflex
ENCODING 234
SWIDTH 206 0
DWIDTH 3 0
BBX 3 7 0 0
BITMAP
04
04
00
28
40
40
50
ENDCHAR
STARTCHAR edieresis
ENCODING 235
SWIDTH 206 0
DWIDTH 3 0
BBX 4 5 0 0
BITMAP
15
28
40
40
50
ENDCHAR
STARTCHAR igrave
ENCODING 236
SWIDTH 149 0
DWIDTH 2 0
BBX 3 6 0 0
BITMAP
20
04
10
10
40
50
ENDCHAR
STARTCHAR iacute
ENCODING 237
SWIDTH 149 0
DWIDTH 2 0
BBX 3 6 0 0
BITMAP
08
04
10
10
40
50
ENDCHAR
STARTCHAR icircumflex
ENCODING 238
SWIDTH 149 0
DWIDTH 2 0
BBX 3 7 0 0
BITMAP
10
04
00
10
10
40
50
ENDCHAR
STARTCHAR idieresis
ENCODING 239
SWIDTH 149 0
DWIDTH 2 0
BBX 3 5 0 0
BITMAP
14
10
10
40
50
ENDCHAR
STARTCHAR eth
ENCODING 240
SWIDTH 234 0
DWIDTH 3 0
BBX 3 9 0 0
BITMAP
40
20
14
04
04
18
54
44
50
ENDCHAR
STARTCHAR ntilde
ENCODING 241
SWIDTH 291 0
DWIDTH 4 0
BBX 4 6 0 0
BITMAP
09
16
2A
25
55
45
ENDCHAR
STARTCHAR ograve
ENCODING 242
SWIDTH 225 0
DWIDTH 3 0
BBX 4 6 0 0
BITMAP
08
05
2C
58
40
40
ENDCHAR
STARTCHAR oacute
ENCODING 243
SWIDTH 225 0
DWIDTH 3 0
BBX 4 6 0 0
BITMAP
05
04
2C
58
40
40
ENDCHAR
STARTCHAR ocircumflex
ENCODING 244
SWIDTH 225 0
DWIDTH 3 0
BBX 4 7 0 0
BITMAP
04
01
00
2C
58
40
40
ENDCHAR
STARTCHAR otilde
ENCODING 245
SWIDTH 225 0
DWIDTH 3 0
BBX 4 6 0 0
BITMAP
15
19
2C
58
40
40
ENDCHAR
STARTCHAR odieresis
ENCODING 246
SWIDTH 225 0
DWIDTH 3 0
BBX 4 5 0 0
BITMAP
15
2C
58
40
40
ENDCHAR
STARTCHAR divide
ENCODING 247
SWIDTH 301 0
DWIDTH 4 0
BBX 3 3 1 1
BITMAP
10
00
54
ENDCHAR
STARTCHAR oslash
ENCODING 248
SWIDTH 225 0
DWIDTH 3 0
BBX 3 4 0 0
BITMAP
2C
58
54
50
ENDCHAR
STARTCHAR ugrave
ENCODING 249
SWIDTH 299 0
DWIDTH 4 0
BBX 4 6 0 0
BITMAP
05
01
11
15
59
65
ENDCHAR
STARTCHAR uacute
ENCODING 250
SWIDTH 299 0
DWIDTH 4 0
BBX 4 6 0 0
BITMAP
02
01
11
15
59
65
ENDCHAR
STARTCHAR ucircumflex
ENCODING 251
SWIDTH 299 0
DWIDTH 4 0
BBX 4 7 0 0
BITMAP
01
01
00
11
15
59
65
ENDCHAR
STARTCHAR udieresis
ENCODING 252
SWIDTH 299 0
DWIDTH 4 0
BBX 4 5 0 0
BITMAP
05
11
15
59
65
ENDCHAR
STARTCHAR yacute
ENCODING 253
SWIDTH 280 0
DWIDTH 4 0
BBX 7 9 -3 -3
BITMAP
0008
0004
0044
0054
0120
0190
0010
4000
5400
ENDCHAR
STARTCHAR thorn
ENCODING 254
SWIDTH 261 0
DWIDTH 4 0
BBX 5 10 -1 -3
BITMAP
0100
0100
0500
0440
0440
1200
2D00
1000
5000
5000
ENDCHAR
STARTCHAR ydieresis
ENCODING 255
SWIDTH 280 0
DWIDTH 4 0
BBX 7 8 -3 -3
BITMAP
0014
0044
0054
0120
0190
0010
4000
5400
ENDCHAR
STARTCHAR dotlessi
ENCODING 305
SWIDTH 149 0
DWIDTH 2 0
BBX 2 4 0 0
BITMAP
10
10
40
50
ENDCHAR
STARTCHAR Lslash
ENCODING 321
SWIDTH 657 0
DWIDTH 9 0
BBX 10 9 0 0
BITMAP
0001E0
000510
000800
001500
006400
002000
159000
428040
796E00
ENDCHAR
STARTCHAR lslash
ENCODING 322
SWIDTH 134 0
DWIDTH 2 0
BBX 7 11 0 0
BITMAP
0014
0040
0100
0000
0400
1000
1000
1000
5000
4000
5000
ENDCHAR
STARTCHAR OE
ENCODING 338
SWIDTH 827 0
DWIDTH 12 0
BBX 11 9 1 0
BITMAP
02F958
190900
100200
400680
401400
805000
805000
A45010
2FA550
ENDCHAR
STARTCHAR oe
ENCODING 339
SWIDTH 345 0
DWIDTH 5 0
BBX 5 4 0 0
BITMAP
2A80
5800
4800
5900
ENDCHAR
STARTCHAR Scaron
ENCODING 352
SWIDTH 480 0
DWIDTH 7 0
BBX 8 11 0 0
BITMAP
0014
0000
0058
0041
0080
0080
0020
0014
1004
5010
2540
ENDCHAR
STARTCHAR scaron
ENCODING 353
SWIDTH 188 0
DWIDTH 3 0
BBX 3 6 0 0
BITMAP
10
00
14
20
10
50
ENDCHAR
STARTCHAR Ydieresis
ENCODING 376
SWIDTH 662 0
DWIDTH 9 0
BBX 12 13 0 -2
BITMAP
000050
000000
001401
000402
001408
001008
001020
141050
405240
403900
800000
601400
2F8000
ENDCHAR
STARTCHAR Zcaron
ENCODING 381
SWIDTH 625 0
DWIDTH 9 0
BBX 9 11 1 0
BITMAP
001400
000000
01FF40
010000
040000
000000
000000
010000
040100
100400
BFE000
ENDCHAR
STARTCHAR zcaron
ENCODING 382
SWIDTH 248 0
DWIDTH 3 0
BBX 3 6 0 0
BITMAP
04
00
18
00
10
A4
ENDCHAR
STARTCHAR florin
ENCODING 402
SWIDTH 214 0
DWIDTH 3 0
BBX 5 5 -1 -1
BITMAP
0240
0800
1E00
1400
5000
ENDCHAR
STARTCHAR circumflex
ENCODING 710
SWIDTH 196 0
DWIDTH 3 0
BBX 1 2 1 5
BITMAP
40
40
ENDCHAR
STARTCHAR caron
ENCODING 711
SWIDTH 196 0
DWIDTH 3 0
BBX 1 1 0 5
BITMAP
40
ENDCHAR
STARTCHAR breve
ENCODING 728
SWIDTH 198 0
DWIDTH 3 0
BBX 1 2 1 4
BITMAP
40
C0
ENDCHAR
STARTCHAR dotaccent
ENCODING 729
SWIDTH 89 0
DWIDTH 1 0
BBX 1 1 0 4
BITMAP
40
ENDCHAR
STARTCHAR ring
ENCODING 730
SWIDTH 117 0
DWIDTH 2 0
BBX 2 2 0 4
BITMAP
50
40
ENDCHAR
STARTCHAR ogonek
ENCODING 731
SWIDTH 124 0
DWIDTH 2 0
BBX 1 2 0 -2
BITMAP
40
40
ENDCHAR
STARTCHAR tilde
ENCODING 732
SWIDTH 222 0
DWIDTH 3 0
BBX 3 2 0 4
BITMAP
54
64
ENDCHAR
STARTCHAR hungarumlaut
ENCODING 733
SWIDTH 253 0
DWIDTH 4 0
BBX 3 2 0 4
BITMAP
28
54
ENDCHAR
STARTCHAR mu.dup2
ENCODING 956
SWIDTH 324 0
DWIDTH 5 0
BBX 4 6 0 -2
BITMAP
11
12
59
62
40
40
ENDCHAR
STARTCHAR endash
ENCODING 8211
SWIDTH 500 0
DWIDTH 7 0
BBX 7 1 0 2
BITMAP
BFF8
ENDCHAR
STARTCHAR emdash
ENCODING 8212
SWIDTH 1000 0
DWIDTH 14 0
BBX 14 1 0 2
BITMAP
BFFFFFE0
ENDCHAR
STARTCHAR quoteleft
ENCODING 8216
SWIDTH 87 0
DWIDTH 1 0
BBX 1 1 1 4
BITMAP
40
ENDCHAR
STARTCHAR quoteright
ENCODING 8217
SWIDTH 87 0
DWIDTH 1 0
BBX 1 2 1 4
BITMAP
40
40
ENDCHAR
STARTCHAR quotesinglbase
ENCODING 8218
SWIDTH 112 0
DWIDTH 2 0
BBX 1 1 0 0
BITMAP
40
ENDCHAR
STARTCHAR quotedblleft
ENCODING 8220
SWIDTH 167 0
DWIDTH 2 0
BBX 3 2 0 4
BITMAP
14
54
ENDCHAR
STARTCHAR quotedblright
ENCODING 8221
SWIDTH 167 0
DWIDTH 2 0
BBX 2 2 1 4
BITMAP
50
50
ENDCHAR
STARTCHAR quotedblbase
ENCODING 8222
SWIDTH 192 0
DWIDTH 3 0
BBX 3 2 0 -1
BITMAP
54
50
ENDCHAR
STARTCHAR dagger
ENCODING 8224
SWIDTH 185 0
DWIDTH 3 0
BBX 4 9 0 -1
BITMAP
04
04
10
79
10
10
00
40
40
ENDCHAR
STARTCHAR daggerdbl
ENCODING 8225
SWIDTH 185 0
DWIDTH 3 0
BBX 4 9 0 -1
BITMAP
04
04
10
7D
10
10
B4
40
40
ENDCHAR
STARTCHAR bullet
ENCODING 8226
SWIDTH 207 0
DWIDTH 3 0
BBX 2 2 1 1
BITMAP
D0
D0
ENDCHAR
STARTCHAR ellipsis
ENCODING 8230
SWIDTH 376 0
DWIDTH 5 0
BBX 1 1 4 0
BITMAP
00
ENDCHAR
STARTCHAR perthousand
ENCODING 8240
SWIDTH 571 0
DWIDTH 8 0
BBX 8 6 0 -1
BITMAP
0040
0500
5545
5551
1254
4000
ENDCHAR
STARTCHAR guilsinglleft
ENCODING 8249
SWIDTH 189 0
DWIDTH 3 0
BBX 3 4 0 0
BITMAP
04
10
50
20
ENDCHAR
STARTCHAR guilsinglright
ENCODING 8250
SWIDTH 176 0
DWIDTH 2 0
BBX 2 4 0 0
BITMAP
50
20
10
40
ENDCHAR
STARTCHAR fraction
ENCODING 8260
SWIDTH 220 0
DWIDTH 3 0
BBX 4 4 0 0
BITMAP
01
04
10
40
ENDCHAR
STARTCHAR Euro
ENCODING 8364
SWIDTH 360 0
DWIDTH 5 0
BBX 4 5 0 0
BITMAP
1E
BC
50
50
11
ENDCHAR
STARTCHAR trademark
ENCODING 8482
SWIDTH 389 0
DWIDTH 5 0
BBX 4 2 1 2
BITMAP
45
55
ENDCHAR
STARTCHAR minus
ENCODING 8722
SWIDTH 301 0
DWIDTH 4 0
BBX 4 1 0 2
BITMAP
7E
ENDCHAR
STARTCHAR fi
ENCODING 64257
SWIDTH 297 0
DWIDTH 4 0
BBX 12 14 -4 -3
BITMAP
000019
000040
000100
000100
000440
000440
001000
007F00
002100
001500
004500
004000
010000
540000
ENDCHAR
STARTCHAR fl
ENCODING 64258
SWIDTH 290 0
DWIDTH 4 0
BBX 13 14 -4 -3
BITMAP
00001580
00004400
00011000
00050000
00044000
00044000
00110000
007E0000
00210000
00550000
00450000
00400000
01000000
54000000
ENDCHAR
STARTCHAR .notdef
ENCODING -1
SWIDTH 150 0
DWIDTH 2 0
BBX 1 1 0 0
BITMAP
00
ENDCHAR
STARTCHAR .null
ENCODING -1
SWIDTH 0 0
DWIDTH 0 0
BBX 1 1 0 0
BITMAP
00
ENDCHAR
STARTCHAR nonmarkingreturn
ENCODING -1
SWIDTH 150 0
DWIDTH 2 0
BBX 1 1 0 0
BITMAP
00
ENDCHAR
ENDFONT
